{
	"asset":{
		"generator":"Khronos glTF Blender I/O v4.4.55",
		"version":"2.0"
	},
	"scene":0,
	"scenes":[
		{
			"name":"Scene",
			"nodes":[
				0
			]
		}
	],
	"nodes":[
		{
			"mesh":0,
			"name":"Cube"
		}
	],
	"materials":[
		{
			"doubleSided":true,
			"name":"Material",
			"pbrMetallicRoughness":{
				"baseColorFactor":[
					0.19134896993637085,
					0.19134896993637085,
					0.19134896993637085,
					1
				],
				"metallicFactor":0,
				"roughnessFactor":0.5
			}
		}
	],
	"meshes":[
		{
			"name":"Cube",
			"primitives":[
				{
					"attributes":{
						"POSITION":0,
						"NORMAL":1,
						"TEXCOORD_0":2,
						"TEXCOORD_1":3
					},
					"indices":4,
					"material":0
				},
				{
					"attributes":{
						"POSITION":5,
						"NORMAL":6,
						"TEXCOORD_0":7,
						"TEXCOORD_1":8
					},
					"indices":9
				}
			]
		}
	],
	"accessors":[
		{
			"bufferView":0,
			"componentType":5126,
			"count":24,
			"max":[
				0.021019339561462402,
				0.24070656299591064,
				0.04365687444806099
			],
			"min":[
				-0.021019339561462402,
				-0.10445932298898697,
				-0.04365687444806099
			],
			"type":"VEC3"
		},
		{
			"bufferView":1,
			"componentType":5126,
			"count":24,
			"type":"VEC3"
		},
		{
			"bufferView":2,
			"componentType":5126,
			"count":24,
			"type":"VEC2"
		},
		{
			"bufferView":3,
			"componentType":5126,
			"count":24,
			"type":"VEC2"
		},
		{
			"bufferView":4,
			"componentType":5123,
			"count":36,
			"type":"SCALAR"
		},
		{
			"bufferView":5,
			"componentType":5126,
			"count":192,
			"max":[
				0.10000001639127731,
				0.31902438402175903,
				1.5977108478546143
			],
			"min":[
				-0.10000001639127731,
				0.11902429163455963,
				-0.402289479970932
			],
			"type":"VEC3"
		},
		{
			"bufferView":6,
			"componentType":5126,
			"count":192,
			"type":"VEC3"
		},
		{
			"bufferView":7,
			"componentType":5126,
			"count":192,
			"type":"VEC2"
		},
		{
			"bufferView":8,
			"componentType":5126,
			"count":192,
			"type":"VEC2"
		},
		{
			"bufferView":9,
			"componentType":5123,
			"count":372,
			"type":"SCALAR"
		}
	],
	"bufferViews":[
		{
			"buffer":0,
			"byteLength":288,
			"byteOffset":0,
			"target":34962
		},
		{
			"buffer":0,
			"byteLength":288,
			"byteOffset":288,
			"target":34962
		},
		{
			"buffer":0,
			"byteLength":192,
			"byteOffset":576,
			"target":34962
		},
		{
			"buffer":0,
			"byteLength":192,
			"byteOffset":768,
			"target":34962
		},
		{
			"buffer":0,
			"byteLength":72,
			"byteOffset":960,
			"target":34963
		},
		{
			"buffer":0,
			"byteLength":2304,
			"byteOffset":1032,
			"target":34962
		},
		{
			"buffer":0,
			"byteLength":2304,
			"byteOffset":3336,
			"target":34962
		},
		{
			"buffer":0,
			"byteLength":1536,
			"byteOffset":5640,
			"target":34962
		},
		{
			"buffer":0,
			"byteLength":1536,
			"byteOffset":7176,
			"target":34962
		},
		{
			"buffer":0,
			"byteLength":744,
			"byteOffset":8712,
			"target":34963
		}
	],
	"buffers":[
		{
			"byteLength":9456,
			"uri":"RocketLauncher.bin"
		}
	]
}
