{
	"asset":{
		"generator":"Khronos glTF Blender I/O v4.4.55",
		"version":"2.0"
	},
	"scene":0,
	"scenes":[
		{
			"name":"Scene",
			"nodes":[
				0
			]
		}
	],
	"nodes":[
		{
			"mesh":0,
			"name":"\u7acb\u65b9\u4f53.011"
		}
	],
	"materials":[
		{
			"doubleSided":true,
			"name":"\u30de\u30c6\u30ea\u30a2\u30eb.011",
			"pbrMetallicRoughness":{
				"baseColorFactor":[
					0.0555550754070282,
					0.0555550754070282,
					0.0555550754070282,
					1
				],
				"metallicFactor":0,
				"roughnessFactor":0.5
			}
		},
		{
			"doubleSided":true,
			"name":"\u30de\u30c6\u30ea\u30a2\u30eb.010",
			"pbrMetallicRoughness":{
				"baseColorFactor":[
					0.0055550336837768555,
					0.0055550336837768555,
					0.0055550336837768555,
					1
				],
				"metallicFactor":0,
				"roughnessFactor":0.5
			}
		},
		{
			"doubleSided":true,
			"name":"\u30de\u30c6\u30ea\u30a2\u30eb.009",
			"pbrMetallicRoughness":{
				"baseColorFactor":[
					0.029999999329447746,
					0.029999999329447746,
					0.029999999329447746,
					1
				],
				"metallicFactor":0,
				"roughnessFactor":0.5
			}
		},
		{
			"doubleSided":true,
			"name":"\u30de\u30c6\u30ea\u30a2\u30eb.007",
			"pbrMetallicRoughness":{
				"baseColorFactor":[
					0.05000000074505806,
					0.025255311280488968,
					0.02500000037252903,
					1
				],
				"metallicFactor":0,
				"roughnessFactor":0.5
			}
		}
	],
	"meshes":[
		{
			"name":"\u7acb\u65b9\u4f53.004",
			"primitives":[
				{
					"attributes":{
						"POSITION":0,
						"NORMAL":1,
						"TEXCOORD_0":2
					},
					"indices":3,
					"material":0
				},
				{
					"attributes":{
						"POSITION":4,
						"NORMAL":5,
						"TEXCOORD_0":6
					},
					"indices":7,
					"material":1
				},
				{
					"attributes":{
						"POSITION":8,
						"NORMAL":9,
						"TEXCOORD_0":10
					},
					"indices":7,
					"material":2
				},
				{
					"attributes":{
						"POSITION":11,
						"NORMAL":12,
						"TEXCOORD_0":13
					},
					"indices":7,
					"material":3
				}
			]
		}
	],
	"accessors":[
		{
			"bufferView":0,
			"componentType":5126,
			"count":122,
			"max":[
				0.20186616480350494,
				-2.421273708343506,
				-0.12181922793388367
			],
			"min":[
				-0.2018662393093109,
				-2.6995017528533936,
				-0.610327959060669
			],
			"type":"VEC3"
		},
		{
			"bufferView":1,
			"componentType":5126,
			"count":122,
			"type":"VEC3"
		},
		{
			"bufferView":2,
			"componentType":5126,
			"count":122,
			"type":"VEC2"
		},
		{
			"bufferView":3,
			"componentType":5123,
			"count":336,
			"type":"SCALAR"
		},
		{
			"bufferView":4,
			"componentType":5126,
			"count":24,
			"max":[
				0.12970678508281708,
				0.12314248085021973,
				0.47731566429138184
			],
			"min":[
				-0.12970678508281708,
				-0.12314224243164062,
				-0.47731563448905945
			],
			"type":"VEC3"
		},
		{
			"bufferView":5,
			"componentType":5126,
			"count":24,
			"type":"VEC3"
		},
		{
			"bufferView":6,
			"componentType":5126,
			"count":24,
			"type":"VEC2"
		},
		{
			"bufferView":7,
			"componentType":5123,
			"count":36,
			"type":"SCALAR"
		},
		{
			"bufferView":8,
			"componentType":5126,
			"count":24,
			"max":[
				0.15190489590168,
				0.5335586071014404,
				-0.22605963051319122
			],
			"min":[
				-0.15190495550632477,
				-2.476369619369507,
				-0.5060876607894897
			],
			"type":"VEC3"
		},
		{
			"bufferView":9,
			"componentType":5126,
			"count":24,
			"type":"VEC3"
		},
		{
			"bufferView":10,
			"componentType":5126,
			"count":24,
			"type":"VEC2"
		},
		{
			"bufferView":11,
			"componentType":5126,
			"count":24,
			"max":[
				0.05551156401634216,
				0.33998727798461914,
				-0.45569321513175964
			],
			"min":[
				-0.05551166087388992,
				-1.6600127220153809,
				-0.6433062553405762
			],
			"type":"VEC3"
		},
		{
			"bufferView":12,
			"componentType":5126,
			"count":24,
			"type":"VEC3"
		},
		{
			"bufferView":13,
			"componentType":5126,
			"count":24,
			"type":"VEC2"
		}
	],
	"bufferViews":[
		{
			"buffer":0,
			"byteLength":1464,
			"byteOffset":0,
			"target":34962
		},
		{
			"buffer":0,
			"byteLength":1464,
			"byteOffset":1464,
			"target":34962
		},
		{
			"buffer":0,
			"byteLength":976,
			"byteOffset":2928,
			"target":34962
		},
		{
			"buffer":0,
			"byteLength":672,
			"byteOffset":3904,
			"target":34963
		},
		{
			"buffer":0,
			"byteLength":288,
			"byteOffset":4576,
			"target":34962
		},
		{
			"buffer":0,
			"byteLength":288,
			"byteOffset":4864,
			"target":34962
		},
		{
			"buffer":0,
			"byteLength":192,
			"byteOffset":5152,
			"target":34962
		},
		{
			"buffer":0,
			"byteLength":72,
			"byteOffset":5344,
			"target":34963
		},
		{
			"buffer":0,
			"byteLength":288,
			"byteOffset":5416,
			"target":34962
		},
		{
			"buffer":0,
			"byteLength":288,
			"byteOffset":5704,
			"target":34962
		},
		{
			"buffer":0,
			"byteLength":192,
			"byteOffset":5992,
			"target":34962
		},
		{
			"buffer":0,
			"byteLength":288,
			"byteOffset":6184,
			"target":34962
		},
		{
			"buffer":0,
			"byteLength":288,
			"byteOffset":6472,
			"target":34962
		},
		{
			"buffer":0,
			"byteLength":192,
			"byteOffset":6760,
			"target":34962
		}
	],
	"buffers":[
		{
			"byteLength":6952,
			"uri":"BossMechWeaponLaserGun.bin"
		}
	]
}
