{
	"asset":{
		"generator":"Khronos glTF Blender I/O v4.4.55",
		"version":"2.0"
	},
	"scene":0,
	"scenes":[
		{
			"name":"Scene",
			"nodes":[
				0
			]
		}
	],
	"nodes":[
		{
			"mesh":0,
			"name":"\u7acb\u65b9\u4f53"
		}
	],
	"materials":[
		{
			"doubleSided":true,
			"name":"\u30de\u30c6\u30ea\u30a2\u30eb",
			"pbrMetallicRoughness":{
				"baseColorFactor":[
					0.14444398880004883,
					0.14444398880004883,
					0.14444398880004883,
					1
				],
				"metallicFactor":0,
				"roughnessFactor":0.5
			}
		},
		{
			"doubleSided":true,
			"name":"Material",
			"pbrMetallicRoughness":{
				"baseColorFactor":[
					0.03928855434060097,
					0.004029246047139168,
					0.0032669217325747013,
					1
				],
				"metallicFactor":0,
				"roughnessFactor":0.5
			}
		},
		{
			"doubleSided":true,
			"name":"\u30de\u30c6\u30ea\u30a2\u30eb.002",
			"pbrMetallicRoughness":{
				"baseColorFactor":[
					0.25010132789611816,
					0.18849016726016998,
					0,
					1
				],
				"metallicFactor":0,
				"roughnessFactor":0.5
			}
		},
		{
			"doubleSided":true,
			"name":"\u30de\u30c6\u30ea\u30a2\u30eb.004",
			"pbrMetallicRoughness":{
				"baseColorFactor":[
					0.061110615730285645,
					0.061110615730285645,
					0.061110615730285645,
					1
				],
				"metallicFactor":0,
				"roughnessFactor":0.5
			}
		},
		{
			"doubleSided":true,
			"name":"\u30de\u30c6\u30ea\u30a2\u30eb.003",
			"pbrMetallicRoughness":{
				"baseColorFactor":[
					0.25010132789611816,
					0.18849016726016998,
					0,
					1
				],
				"metallicFactor":0,
				"roughnessFactor":0.5
			}
		},
		{
			"doubleSided":true,
			"name":"\u30de\u30c6\u30ea\u30a2\u30eb.006",
			"pbrMetallicRoughness":{
				"baseColorFactor":[
					0.0294952392578125,
					0.01111602783203125,
					0.01007843017578125,
					1
				],
				"metallicFactor":0,
				"roughnessFactor":0.5
			}
		}
	],
	"meshes":[
		{
			"name":"\u7acb\u65b9\u4f53",
			"primitives":[
				{
					"attributes":{
						"POSITION":0,
						"NORMAL":1,
						"TEXCOORD_0":2,
						"TEXCOORD_1":3
					},
					"indices":4,
					"material":0
				},
				{
					"attributes":{
						"POSITION":5,
						"NORMAL":6,
						"TEXCOORD_0":7,
						"TEXCOORD_1":8
					},
					"indices":9,
					"material":1
				},
				{
					"attributes":{
						"POSITION":10,
						"NORMAL":11,
						"TEXCOORD_0":12,
						"TEXCOORD_1":13
					},
					"indices":14,
					"material":2
				},
				{
					"attributes":{
						"POSITION":15,
						"NORMAL":16,
						"TEXCOORD_0":17,
						"TEXCOORD_1":18
					},
					"indices":19,
					"material":3
				},
				{
					"attributes":{
						"POSITION":20,
						"NORMAL":21,
						"TEXCOORD_0":22,
						"TEXCOORD_1":23
					},
					"indices":14,
					"material":4
				},
				{
					"attributes":{
						"POSITION":24,
						"NORMAL":25,
						"TEXCOORD_0":26,
						"TEXCOORD_1":27
					},
					"indices":28,
					"material":5
				}
			]
		}
	],
	"accessors":[
		{
			"bufferView":0,
			"componentType":5126,
			"count":205,
			"max":[
				0.6889971494674683,
				0.6255704164505005,
				0.7689967155456543
			],
			"min":[
				-0.6889971494674683,
				-0.5324033498764038,
				-0.5861270427703857
			],
			"type":"VEC3"
		},
		{
			"bufferView":1,
			"componentType":5126,
			"count":205,
			"type":"VEC3"
		},
		{
			"bufferView":2,
			"componentType":5126,
			"count":205,
			"type":"VEC2"
		},
		{
			"bufferView":3,
			"componentType":5126,
			"count":205,
			"type":"VEC2"
		},
		{
			"bufferView":4,
			"componentType":5123,
			"count":576,
			"type":"SCALAR"
		},
		{
			"bufferView":5,
			"componentType":5126,
			"count":36,
			"max":[
				0.7466965317726135,
				-0.38814952969551086,
				0.8355532884597778
			],
			"min":[
				-0.7467013001441956,
				-0.6329567432403564,
				-0.7794357538223267
			],
			"type":"VEC3"
		},
		{
			"bufferView":6,
			"componentType":5126,
			"count":36,
			"type":"VEC3"
		},
		{
			"bufferView":7,
			"componentType":5126,
			"count":36,
			"type":"VEC2"
		},
		{
			"bufferView":8,
			"componentType":5126,
			"count":36,
			"type":"VEC2"
		},
		{
			"bufferView":9,
			"componentType":5123,
			"count":60,
			"type":"SCALAR"
		},
		{
			"bufferView":10,
			"componentType":5126,
			"count":48,
			"max":[
				0.2938827574253082,
				0.09916381537914276,
				0.6598029732704163
			],
			"min":[
				-0.2938874661922455,
				-0.2066003531217575,
				0.13765844702720642
			],
			"type":"VEC3"
		},
		{
			"bufferView":11,
			"componentType":5126,
			"count":48,
			"type":"VEC3"
		},
		{
			"bufferView":12,
			"componentType":5126,
			"count":48,
			"type":"VEC2"
		},
		{
			"bufferView":13,
			"componentType":5126,
			"count":48,
			"type":"VEC2"
		},
		{
			"bufferView":14,
			"componentType":5123,
			"count":84,
			"type":"SCALAR"
		},
		{
			"bufferView":15,
			"componentType":5126,
			"count":24,
			"max":[
				0.35759982466697693,
				0.6616777181625366,
				-0.3839861750602722
			],
			"min":[
				-0.3576047122478485,
				0.29047274589538574,
				-0.7595083117485046
			],
			"type":"VEC3"
		},
		{
			"bufferView":16,
			"componentType":5126,
			"count":24,
			"type":"VEC3"
		},
		{
			"bufferView":17,
			"componentType":5126,
			"count":24,
			"type":"VEC2"
		},
		{
			"bufferView":18,
			"componentType":5126,
			"count":24,
			"type":"VEC2"
		},
		{
			"bufferView":19,
			"componentType":5123,
			"count":36,
			"type":"SCALAR"
		},
		{
			"bufferView":20,
			"componentType":5126,
			"count":48,
			"max":[
				0.29388272762298584,
				0.41266340017318726,
				0.5812311172485352
			],
			"min":[
				-0.2938874661922455,
				0.1068991869688034,
				0.059086624532938004
			],
			"type":"VEC3"
		},
		{
			"bufferView":21,
			"componentType":5126,
			"count":48,
			"type":"VEC3"
		},
		{
			"bufferView":22,
			"componentType":5126,
			"count":48,
			"type":"VEC2"
		},
		{
			"bufferView":23,
			"componentType":5126,
			"count":48,
			"type":"VEC2"
		},
		{
			"bufferView":24,
			"componentType":5126,
			"count":208,
			"max":[
				0.8221453428268433,
				0.7640688419342041,
				0.7603287696838379
			],
			"min":[
				-0.8221502304077148,
				-0.01727639138698578,
				-0.7334324717521667
			],
			"type":"VEC3"
		},
		{
			"bufferView":25,
			"componentType":5126,
			"count":208,
			"type":"VEC3"
		},
		{
			"bufferView":26,
			"componentType":5126,
			"count":208,
			"type":"VEC2"
		},
		{
			"bufferView":27,
			"componentType":5126,
			"count":208,
			"type":"VEC2"
		},
		{
			"bufferView":28,
			"componentType":5123,
			"count":336,
			"type":"SCALAR"
		}
	],
	"bufferViews":[
		{
			"buffer":0,
			"byteLength":2460,
			"byteOffset":0,
			"target":34962
		},
		{
			"buffer":0,
			"byteLength":2460,
			"byteOffset":2460,
			"target":34962
		},
		{
			"buffer":0,
			"byteLength":1640,
			"byteOffset":4920,
			"target":34962
		},
		{
			"buffer":0,
			"byteLength":1640,
			"byteOffset":6560,
			"target":34962
		},
		{
			"buffer":0,
			"byteLength":1152,
			"byteOffset":8200,
			"target":34963
		},
		{
			"buffer":0,
			"byteLength":432,
			"byteOffset":9352,
			"target":34962
		},
		{
			"buffer":0,
			"byteLength":432,
			"byteOffset":9784,
			"target":34962
		},
		{
			"buffer":0,
			"byteLength":288,
			"byteOffset":10216,
			"target":34962
		},
		{
			"buffer":0,
			"byteLength":288,
			"byteOffset":10504,
			"target":34962
		},
		{
			"buffer":0,
			"byteLength":120,
			"byteOffset":10792,
			"target":34963
		},
		{
			"buffer":0,
			"byteLength":576,
			"byteOffset":10912,
			"target":34962
		},
		{
			"buffer":0,
			"byteLength":576,
			"byteOffset":11488,
			"target":34962
		},
		{
			"buffer":0,
			"byteLength":384,
			"byteOffset":12064,
			"target":34962
		},
		{
			"buffer":0,
			"byteLength":384,
			"byteOffset":12448,
			"target":34962
		},
		{
			"buffer":0,
			"byteLength":168,
			"byteOffset":12832,
			"target":34963
		},
		{
			"buffer":0,
			"byteLength":288,
			"byteOffset":13000,
			"target":34962
		},
		{
			"buffer":0,
			"byteLength":288,
			"byteOffset":13288,
			"target":34962
		},
		{
			"buffer":0,
			"byteLength":192,
			"byteOffset":13576,
			"target":34962
		},
		{
			"buffer":0,
			"byteLength":192,
			"byteOffset":13768,
			"target":34962
		},
		{
			"buffer":0,
			"byteLength":72,
			"byteOffset":13960,
			"target":34963
		},
		{
			"buffer":0,
			"byteLength":576,
			"byteOffset":14032,
			"target":34962
		},
		{
			"buffer":0,
			"byteLength":576,
			"byteOffset":14608,
			"target":34962
		},
		{
			"buffer":0,
			"byteLength":384,
			"byteOffset":15184,
			"target":34962
		},
		{
			"buffer":0,
			"byteLength":384,
			"byteOffset":15568,
			"target":34962
		},
		{
			"buffer":0,
			"byteLength":2496,
			"byteOffset":15952,
			"target":34962
		},
		{
			"buffer":0,
			"byteLength":2496,
			"byteOffset":18448,
			"target":34962
		},
		{
			"buffer":0,
			"byteLength":1664,
			"byteOffset":20944,
			"target":34962
		},
		{
			"buffer":0,
			"byteLength":1664,
			"byteOffset":22608,
			"target":34962
		},
		{
			"buffer":0,
			"byteLength":672,
			"byteOffset":24272,
			"target":34963
		}
	],
	"buffers":[
		{
			"byteLength":24944,
			"uri":"BossMechBody.bin"
		}
	]
}
