{
	"asset":{
		"generator":"Khronos glTF Blender I/O v4.4.56",
		"version":"2.0"
	},
	"scene":0,
	"scenes":[
		{
			"name":"Scene",
			"nodes":[
				3
			]
		}
	],
	"nodes":[
		{
			"mesh":0,
			"name":"LanternPole_Body"
		},
		{
			"mesh":1,
			"name":"LanternPole_Chain"
		},
		{
			"mesh":2,
			"name":"LanternPole_Lantern"
		},
		{
			"children":[
				0,
				1,
				2
			],
			"name":"Lantern"
		}
	],
	"materials":[
		{
			"emissiveFactor":[
				1,
				1,
				1
			],
			"emissiveTexture":{
				"index":0
			},
			"name":"LanternPost_Mat",
			"normalTexture":{
				"index":1
			},
			"pbrMetallicRoughness":{
				"baseColorTexture":{
					"index":2
				},
				"metallicRoughnessTexture":{
					"index":3
				}
			}
		}
	],
	"meshes":[
		{
			"name":"LanternPole_Body",
			"primitives":[
				{
					"attributes":{
						"POSITION":0,
						"NORMAL":1,
						"TEXCOORD_0":2
					},
					"indices":3,
					"material":0
				}
			]
		},
		{
			"name":"LanternPole_Chain",
			"primitives":[
				{
					"attributes":{
						"POSITION":4,
						"NORMAL":5,
						"TEXCOORD_0":6
					},
					"indices":7,
					"material":0
				}
			]
		},
		{
			"name":"LanternPole_Lantern",
			"primitives":[
				{
					"attributes":{
						"POSITION":8,
						"NORMAL":9,
						"TEXCOORD_0":10
					},
					"indices":11,
					"material":0
				}
			]
		}
	],
	"textures":[
		{
			"sampler":0,
			"source":0
		},
		{
			"sampler":0,
			"source":1
		},
		{
			"sampler":0,
			"source":2
		},
		{
			"sampler":0,
			"source":3
		}
	],
	"images":[
		{
			"mimeType":"image/png",
			"name":"Lantern_emissive",
			"uri":"Lantern_emissive.png"
		},
		{
			"mimeType":"image/png",
			"name":"Lantern_normal",
			"uri":"Lantern_normal.png"
		},
		{
			"mimeType":"image/png",
			"name":"Lantern_baseColor",
			"uri":"Lantern_baseColor.png"
		},
		{
			"mimeType":"image/png",
			"name":"Lantern_roughnessMetallic",
			"uri":"Lantern_roughnessMetallic.png"
		}
	],
	"accessors":[
		{
			"bufferView":0,
			"componentType":5126,
			"count":926,
			"max":[
				12.278614044189453,
				25.848140716552734,
				2.3157098293304443
			],
			"min":[
				-3.2125844955444336,
				0.18392086029052734,
				-2.3157098293304443
			],
			"type":"VEC3"
		},
		{
			"bufferView":1,
			"componentType":5126,
			"count":926,
			"type":"VEC3"
		},
		{
			"bufferView":2,
			"componentType":5126,
			"count":926,
			"type":"VEC2"
		},
		{
			"bufferView":3,
			"componentType":5123,
			"count":2616,
			"type":"SCALAR"
		},
		{
			"bufferView":4,
			"componentType":5126,
			"count":756,
			"max":[
				9.71120834350586,
				21.690223693847656,
				0.12920807301998138
			],
			"min":[
				9.45279312133789,
				20.385520935058594,
				-0.12920807301998138
			],
			"type":"VEC3"
		},
		{
			"bufferView":5,
			"componentType":5126,
			"count":756,
			"type":"VEC3"
		},
		{
			"bufferView":6,
			"componentType":5126,
			"count":756,
			"type":"VEC2"
		},
		{
			"bufferView":7,
			"componentType":5123,
			"count":3744,
			"type":"SCALAR"
		},
		{
			"bufferView":8,
			"componentType":5126,
			"count":2541,
			"max":[
				10.616089820861816,
				20.538433074951172,
				1.034084677696228
			],
			"min":[
				8.547924995422363,
				15.479870796203613,
				-1.034084677696228
			],
			"type":"VEC3"
		},
		{
			"bufferView":9,
			"componentType":5126,
			"count":2541,
			"type":"VEC3"
		},
		{
			"bufferView":10,
			"componentType":5126,
			"count":2541,
			"type":"VEC2"
		},
		{
			"bufferView":11,
			"componentType":5123,
			"count":9822,
			"type":"SCALAR"
		}
	],
	"bufferViews":[
		{
			"buffer":0,
			"byteLength":11112,
			"byteOffset":0,
			"target":34962
		},
		{
			"buffer":0,
			"byteLength":11112,
			"byteOffset":11112,
			"target":34962
		},
		{
			"buffer":0,
			"byteLength":7408,
			"byteOffset":22224,
			"target":34962
		},
		{
			"buffer":0,
			"byteLength":5232,
			"byteOffset":29632,
			"target":34963
		},
		{
			"buffer":0,
			"byteLength":9072,
			"byteOffset":34864,
			"target":34962
		},
		{
			"buffer":0,
			"byteLength":9072,
			"byteOffset":43936,
			"target":34962
		},
		{
			"buffer":0,
			"byteLength":6048,
			"byteOffset":53008,
			"target":34962
		},
		{
			"buffer":0,
			"byteLength":7488,
			"byteOffset":59056,
			"target":34963
		},
		{
			"buffer":0,
			"byteLength":30492,
			"byteOffset":66544,
			"target":34962
		},
		{
			"buffer":0,
			"byteLength":30492,
			"byteOffset":97036,
			"target":34962
		},
		{
			"buffer":0,
			"byteLength":20328,
			"byteOffset":127528,
			"target":34962
		},
		{
			"buffer":0,
			"byteLength":19644,
			"byteOffset":147856,
			"target":34963
		}
	],
	"samplers":[
		{
			"magFilter":9729,
			"minFilter":9987
		}
	],
	"buffers":[
		{
			"byteLength":167500,
			"uri":"Lantern.bin"
		}
	]
}
