{
	"asset":{
		"generator":"Khronos glTF Blender I/O v4.4.55",
		"version":"2.0"
	},
	"scene":0,
	"scenes":[
		{
			"name":"Scene",
			"nodes":[
				0,
				1,
				2
			]
		}
	],
	"nodes":[
		{
			"mesh":0,
			"name":"\u7acb\u65b9\u4f53.004"
		},
		{
			"mesh":1,
			"name":"ICO\u7403"
		},
		{
			"mesh":2,
			"name":"\u7acb\u65b9\u4f53.006"
		}
	],
	"materials":[
		{
			"doubleSided":true,
			"name":"\u30de\u30c6\u30ea\u30a2\u30eb.001",
			"pbrMetallicRoughness":{
				"baseColorFactor":[
					0.07830810546875,
					0.07562255859375,
					0.08660888671875,
					1
				],
				"metallicFactor":0,
				"roughnessFactor":0.5
			}
		},
		{
			"doubleSided":true,
			"name":"\u30de\u30c6\u30ea\u30a2\u30eb.008",
			"pbrMetallicRoughness":{
				"baseColorFactor":[
					0.31696611642837524,
					0.09441757947206497,
					0.0952955037355423,
					1
				],
				"metallicFactor":0,
				"roughnessFactor":0.5
			}
		},
		{
			"doubleSided":true,
			"name":"\u30de\u30c6\u30ea\u30a2\u30eb.005",
			"pbrMetallicRoughness":{
				"baseColorFactor":[
					0.11505126953125,
					0.08758544921875,
					0.10064697265625,
					1
				],
				"metallicFactor":0,
				"roughnessFactor":0.5
			}
		}
	],
	"meshes":[
		{
			"name":"\u7acb\u65b9\u4f53.003",
			"primitives":[
				{
					"attributes":{
						"POSITION":0,
						"NORMAL":1,
						"TEXCOORD_0":2
					},
					"indices":3,
					"material":0
				}
			]
		},
		{
			"name":"ICO\u7403",
			"primitives":[
				{
					"attributes":{
						"POSITION":4,
						"NORMAL":5,
						"TEXCOORD_0":6
					},
					"indices":7,
					"material":1
				}
			]
		},
		{
			"name":"\u7acb\u65b9\u4f53.004",
			"primitives":[
				{
					"attributes":{
						"POSITION":8,
						"NORMAL":9,
						"TEXCOORD_0":10
					},
					"indices":11,
					"material":2
				}
			]
		}
	],
	"accessors":[
		{
			"bufferView":0,
			"componentType":5126,
			"count":181,
			"max":[
				0.3619343638420105,
				0.37917762994766235,
				0.3712396025657654
			],
			"min":[
				-0.3619343638420105,
				-0.23803944885730743,
				-0.2610211968421936
			],
			"type":"VEC3"
		},
		{
			"bufferView":1,
			"componentType":5126,
			"count":181,
			"type":"VEC3"
		},
		{
			"bufferView":2,
			"componentType":5126,
			"count":181,
			"type":"VEC2"
		},
		{
			"bufferView":3,
			"componentType":5123,
			"count":336,
			"type":"SCALAR"
		},
		{
			"bufferView":4,
			"componentType":5126,
			"count":240,
			"max":[
				0.11923875659704208,
				0.18577897548675537,
				-0.03365683555603027
			],
			"min":[
				-0.11923875659704208,
				-0.06497076153755188,
				-0.23365682363510132
			],
			"type":"VEC3"
		},
		{
			"bufferView":5,
			"componentType":5126,
			"count":240,
			"type":"VEC3"
		},
		{
			"bufferView":6,
			"componentType":5126,
			"count":240,
			"type":"VEC2"
		},
		{
			"bufferView":7,
			"componentType":5123,
			"count":240,
			"type":"SCALAR"
		},
		{
			"bufferView":8,
			"componentType":5126,
			"count":58,
			"max":[
				0.36761510372161865,
				0.30754876136779785,
				0.4551328718662262
			],
			"min":[
				-0.36761510372161865,
				0.15706045925617218,
				-0.4184480905532837
			],
			"type":"VEC3"
		},
		{
			"bufferView":9,
			"componentType":5126,
			"count":58,
			"type":"VEC3"
		},
		{
			"bufferView":10,
			"componentType":5126,
			"count":58,
			"type":"VEC2"
		},
		{
			"bufferView":11,
			"componentType":5123,
			"count":108,
			"type":"SCALAR"
		}
	],
	"bufferViews":[
		{
			"buffer":0,
			"byteLength":2172,
			"byteOffset":0,
			"target":34962
		},
		{
			"buffer":0,
			"byteLength":2172,
			"byteOffset":2172,
			"target":34962
		},
		{
			"buffer":0,
			"byteLength":1448,
			"byteOffset":4344,
			"target":34962
		},
		{
			"buffer":0,
			"byteLength":672,
			"byteOffset":5792,
			"target":34963
		},
		{
			"buffer":0,
			"byteLength":2880,
			"byteOffset":6464,
			"target":34962
		},
		{
			"buffer":0,
			"byteLength":2880,
			"byteOffset":9344,
			"target":34962
		},
		{
			"buffer":0,
			"byteLength":1920,
			"byteOffset":12224,
			"target":34962
		},
		{
			"buffer":0,
			"byteLength":480,
			"byteOffset":14144,
			"target":34963
		},
		{
			"buffer":0,
			"byteLength":696,
			"byteOffset":14624,
			"target":34962
		},
		{
			"buffer":0,
			"byteLength":696,
			"byteOffset":15320,
			"target":34962
		},
		{
			"buffer":0,
			"byteLength":464,
			"byteOffset":16016,
			"target":34962
		},
		{
			"buffer":0,
			"byteLength":216,
			"byteOffset":16480,
			"target":34963
		}
	],
	"buffers":[
		{
			"byteLength":16696,
			"uri":"BossMechHead.bin"
		}
	]
}
